<!DOCTYPE svg PUBLIC "-//W3C//DTD SVG 1.1//EN" "http://www.w3.org/Graphics/SVG/1.1/DTD/svg11.dtd">
<!-- Uploaded to: SVG Repo, www.svgrepo.com, Transformed by: SVG Repo Mixer Tools -->
<svg width="800px" height="800px" viewBox="-4.8 -4.8 57.60 57.60" xmlns="http://www.w3.org/2000/svg" fill="#000000" stroke="#000000" stroke-width="4.8">
<g id="SVGRepo_bgCarrier" stroke-width="0" transform="translate(0,0), scale(1)">
<rect x="-4.8" y="-4.8" width="57.60" height="57.60" rx="5.184" fill="#c9c2ff" strokewidth="0"/>
</g>
<g id="SVGRepo_tracerCarrier" stroke-linecap="round" stroke-linejoin="round"/>
<g id="SVGRepo_iconCarrier"> <defs> <style>.c{fill:none;stroke:#3441fe;stroke-linecap:round;stroke-linejoin:round;}</style> </defs> <g id="a"> <g> <path class="c" d="m21.9428,11.85c-3.3479,0-6.0619,2.7199-6.0619,6.075h0c0,3.3551,2.714,6.075,6.0619,6.075h4.1145c3.3479,0,6.0619,2.7199,6.0619,6.075h0c0,3.3551-2.714,6.075-6.0619,6.075"/> <path class="c" d="m31.5416,13.9002c-1.6743-1.4059-3.482-2.0502-7.5416-2.0502h-2.0572"/> <path class="c" d="m16.4584,34.0998c1.6743,1.4059,3.482,2.0502,7.5416,2.0502h2.0572"/> </g> </g> <g id="b"> <circle class="c" cx="24" cy="24" r="21.5"/> </g> </g>
</svg>